# Blender 4.0.2
# www.blender.org
mtllib track5.mtl
o Cube
v -20.000000 0.000000 10.000000
v 20.000000 0.000000 10.000000
v -20.000000 0.000000 -10.000000
v 20.000000 0.000000 -10.000000
v 20.000000 0.000000 -10.000000
v 20.000000 0.000000 10.000000
v 21.950912 0.000000 9.807853
v 23.826828 0.000000 9.238795
v 25.555706 0.000000 8.314696
v 27.071075 0.000000 7.071068
v 28.314705 0.000000 5.555702
v 29.238796 0.000000 3.826835
v 29.807854 0.000000 1.950903
v 30.000000 0.000000 0.000000
v 29.807854 0.000000 -1.950903
v 29.238796 0.000000 -3.826835
v 28.314705 0.000000 -5.555702
v 27.071075 0.000000 -7.071068
v 25.555706 0.000000 -8.314696
v 23.826828 0.000000 -9.238795
v 21.950912 0.000000 -9.807853
v -21.950895 0.000000 -9.807853
v -23.826811 0.000000 -9.238795
v -25.555689 0.000000 -8.314696
v -27.071058 0.000000 -7.071068
v -28.314688 0.000000 -5.555702
v -29.238779 0.000000 -3.826835
v -29.807837 0.000000 -1.950903
v -29.999983 0.000000 0.000000
v -29.807837 0.000000 1.950903
v -29.238779 0.000000 3.826835
v -28.314688 0.000000 5.555702
v -27.071058 0.000000 7.071068
v -25.555689 0.000000 8.314696
v -23.826811 0.000000 9.238795
v -21.950895 0.000000 9.807853
v -19.999983 0.000000 10.000000
v 19.724974 0.000000 4.401670
v -19.724957 0.000000 4.401670
v 19.724974 0.000000 -4.401670
v -19.724957 0.000000 -4.401670
v 20.853443 0.000000 4.290527
v 21.674076 0.000000 4.041589
v 22.430399 0.000000 3.637327
v 23.093309 0.000000 3.093293
v 23.637337 0.000000 2.430395
v 24.041584 0.000000 1.674092
v 24.290525 0.000000 0.853440
v 24.374582 0.000000 0.000000
v 24.290525 0.000000 -0.853440
v 24.041584 0.000000 -1.674092
v 23.637337 0.000000 -2.430395
v 23.093307 0.000000 -3.093294
v 22.430401 0.000000 -3.637327
v 21.674076 0.000000 -4.041588
v 20.853443 0.000000 -4.290527
v -20.853426 0.000000 -4.290527
v -21.674059 0.000000 -4.041589
v -22.430382 0.000000 -3.637327
v -23.093292 0.000000 -3.093293
v -23.637320 0.000000 -2.430395
v -24.041567 0.000000 -1.674092
v -24.290508 0.000000 -0.853440
v -24.374565 0.000000 0.000003
v -24.290510 0.000000 0.853440
v -24.041569 0.000000 1.674090
v -23.637320 0.000000 2.430395
v -23.093290 0.000000 3.093294
v -22.430384 0.000000 3.637327
v -21.674059 0.000000 4.041588
v -20.853426 0.000000 4.290527
v 19.948048 0.000000 8.942471
v -19.948030 0.000000 8.942471
v 19.948048 0.000000 -8.942471
v -19.948030 0.000000 -8.942471
v 21.743599 0.000000 8.765625
v 23.420172 0.000000 8.257038
v 24.965332 0.000000 7.431137
v 26.319672 0.000000 6.319663
v 27.431147 0.000000 4.965329
v 28.257038 0.000000 3.420179
v 28.765625 0.000000 1.743592
v 28.937353 0.000000 0.000000
v 28.765625 0.000000 -1.743591
v 28.257038 0.000000 -3.420179
v 27.431147 0.000000 -4.965329
v 26.319672 0.000000 -6.319663
v 24.965334 0.000000 -7.431137
v 23.420172 0.000000 -8.257038
v 21.743599 0.000000 -8.765625
v -21.743582 0.000000 -8.765625
v -23.420155 0.000000 -8.257038
v -24.965315 0.000000 -7.431137
v -26.319654 0.000000 -6.319663
v -27.431129 0.000000 -4.965329
v -28.257021 0.000000 -3.420179
v -28.765608 0.000000 -1.743591
v -28.937336 0.000000 0.000000
v -28.765610 0.000000 1.743592
v -28.257021 0.000000 3.420179
v -27.431129 0.000000 4.965329
v -26.319654 0.000000 6.319663
v -24.965317 0.000000 7.431137
v -23.420155 0.000000 8.257038
v -21.743582 0.000000 8.765625
v 19.724974 2.638937 4.401670
v -19.724957 2.638937 4.401670
v 19.724974 2.638937 -4.401670
v -19.724957 2.638937 -4.401670
v 20.853443 2.638937 4.290527
v 21.674076 2.638937 4.041589
v 22.430399 2.638937 3.637327
v 23.093309 2.638937 3.093293
v 23.637337 2.638937 2.430395
v 24.041584 2.638937 1.674092
v 24.290525 2.638937 0.853440
v 24.374582 2.638937 0.000000
v 24.290525 2.638937 -0.853440
v 24.041584 2.638937 -1.674092
v 23.637337 2.638937 -2.430395
v 23.093307 2.638937 -3.093294
v 22.430401 2.638937 -3.637327
v 21.674076 2.638937 -4.041588
v 20.853443 2.638937 -4.290527
v -20.853426 2.638937 -4.290527
v -21.674059 2.638937 -4.041589
v -22.430382 2.638937 -3.637327
v -23.093292 2.638937 -3.093293
v -23.637320 2.638937 -2.430395
v -24.041567 2.638937 -1.674092
v -24.290508 2.638937 -0.853440
v -24.374565 2.638937 0.000003
v -24.290510 2.638937 0.853440
v -24.041569 2.638937 1.674090
v -23.637320 2.638937 2.430395
v -23.093290 2.638937 3.093294
v -22.430384 2.638937 3.637327
v -21.674059 2.638937 4.041588
v -20.853426 2.638937 4.290527
v 19.948048 2.692207 8.942471
v -19.948030 2.692207 8.942471
v 19.948048 2.692207 -8.942471
v -19.948030 2.692207 -8.942471
v 21.743599 2.692207 8.765625
v 23.420172 2.692207 8.257038
v 24.965332 2.692207 7.431137
v 26.319672 2.692207 6.319663
v 27.431147 2.692207 4.965329
v 28.257038 2.692207 3.420179
v 28.765625 2.692207 1.743592
v 28.937353 2.692207 0.000000
v 28.765625 2.692207 -1.743591
v 28.257038 2.692207 -3.420179
v 27.431147 2.692207 -4.965329
v 26.319672 2.692207 -6.319663
v 24.965334 2.692207 -7.431137
v 23.420172 2.692207 -8.257038
v 21.743599 2.692207 -8.765625
v -21.743582 2.692207 -8.765625
v -23.420155 2.692207 -8.257038
v -24.965315 2.692207 -7.431137
v -26.319654 2.692207 -6.319663
v -27.431129 2.692207 -4.965329
v -28.257021 2.692207 -3.420179
v -28.765608 2.692207 -1.743591
v -28.937336 2.692207 0.000000
v -28.765610 2.692207 1.743592
v -28.257021 2.692207 3.420179
v -27.431129 2.692207 4.965329
v -26.319654 2.692207 6.319663
v -24.965317 2.692207 7.431137
v -23.420155 2.692207 8.257038
v -21.743582 2.692207 8.765625
v 20.000000 2.692207 10.000000
v -19.999983 2.692207 10.000000
v 20.000000 2.692207 -10.000000
v -19.999983 2.692207 -10.000000
v 21.950912 2.692207 9.807853
v 23.826828 2.692207 9.238795
v 25.555706 2.692207 8.314696
v 27.071075 2.692207 7.071068
v 28.314705 2.692207 5.555702
v 29.238796 2.692207 3.826835
v 29.807854 2.692207 1.950903
v 30.000000 2.692207 0.000000
v 29.807854 2.692207 -1.950903
v 29.238796 2.692207 -3.826835
v 28.314705 2.692207 -5.555702
v 27.071075 2.692207 -7.071068
v 25.555706 2.692207 -8.314696
v 23.826828 2.692207 -9.238795
v 21.950912 2.692207 -9.807853
v -21.950895 2.692207 -9.807853
v -23.826811 2.692207 -9.238795
v -25.555689 2.692207 -8.314696
v -27.071058 2.692207 -7.071068
v -28.314688 2.692207 -5.555702
v -29.238779 2.692207 -3.826835
v -29.807837 2.692207 -1.950903
v -29.999983 2.692207 0.000000
v -29.807837 2.692207 1.950903
v -29.238779 2.692207 3.826835
v -28.314688 2.692207 5.555702
v -27.071058 2.692207 7.071068
v -25.555689 2.692207 8.314696
v -23.826811 2.692207 9.238795
v -21.950895 2.692207 9.807853
vn -0.6344 -0.0000 -0.7730
vn 0.4714 -0.0000 0.8819
vn -0.6344 -0.0000 0.7730
vn -0.9569 -0.0000 0.2903
vn 0.2903 -0.0000 0.9569
vn -0.7730 -0.0000 0.6344
vn -0.9952 -0.0000 0.0980
vn 0.0980 -0.0000 0.9952
vn -0.8819 -0.0000 0.4714
vn -0.9952 -0.0000 -0.0980
vn -0.0000 -0.0000 -1.0000
vn -0.9569 -0.0000 -0.2903
vn -0.0000 -0.0000 1.0000
vn -0.8819 -0.0000 -0.4714
vn 0.0980 -0.0000 -0.9952
vn -0.7730 -0.0000 -0.6344
vn 0.2903 -0.0000 -0.9569
vn 0.4714 -0.0000 -0.8819
vn -0.4714 -0.0000 -0.8819
vn 0.6344 -0.0000 -0.7730
vn -0.2903 -0.0000 -0.9569
vn 0.7730 -0.0000 -0.6344
vn -0.0980 -0.0000 -0.9952
vn 0.8819 -0.0000 -0.4714
vn 0.9569 -0.0000 -0.2903
vn -0.0000 1.0000 -0.0000
vn 0.9569 -0.0000 0.2903
vn 0.9952 -0.0000 0.0980
vn 0.9952 -0.0000 -0.0980
vn -0.4714 -0.0000 0.8819
vn 0.6344 -0.0000 0.7730
vn -0.2903 -0.0000 0.9569
vn 0.7730 -0.0000 0.6344
vn -0.0980 -0.0000 0.9952
vn 0.8819 -0.0000 0.4714
vn -0.0000 -1.0000 -0.0000
vt 0.000000 0.000000
s 0
usemtl Material.001
f 39/1/26 72/1/26 38/1/26
f 40/1/26 75/1/26 41/1/26
f 42/1/26 72/1/26 76/1/26
f 42/1/26 77/1/26 43/1/26
f 44/1/26 77/1/26 78/1/26
f 45/1/26 78/1/26 79/1/26
f 46/1/26 79/1/26 80/1/26
f 46/1/26 81/1/26 47/1/26
f 48/1/26 81/1/26 82/1/26
f 49/1/26 82/1/26 83/1/26
f 49/1/26 84/1/26 50/1/26
f 50/1/26 85/1/26 51/1/26
f 52/1/26 85/1/26 86/1/26
f 52/1/26 87/1/26 53/1/26
f 54/1/26 87/1/26 88/1/26
f 54/1/26 89/1/26 55/1/26
f 56/1/26 89/1/26 90/1/26
f 56/1/26 74/1/26 40/1/26
f 57/1/26 75/1/26 91/1/26
f 57/1/26 92/1/26 58/1/26
f 59/1/26 92/1/26 93/1/26
f 60/1/26 93/1/26 94/1/26
f 61/1/26 94/1/26 95/1/26
f 61/1/26 96/1/26 62/1/26
f 63/1/26 96/1/26 97/1/26
f 64/1/26 97/1/26 98/1/26
f 65/1/26 98/1/26 99/1/26
f 65/1/26 100/1/26 66/1/26
f 67/1/26 100/1/26 101/1/26
f 67/1/26 102/1/26 68/1/26
f 69/1/26 102/1/26 103/1/26
f 69/1/26 104/1/26 70/1/26
f 71/1/26 104/1/26 105/1/26
f 71/1/26 73/1/26 39/1/26
f 82/1/36 83/1/36 14/1/36
f 97/1/36 98/1/36 29/1/36
f 6/1/36 73/1/36 72/1/36
f 5/1/36 75/1/36 3/1/36
f 71/1/36 40/1/36 49/1/36
f 39/1/26 73/1/26 72/1/26
f 40/1/26 74/1/26 75/1/26
f 42/1/26 38/1/26 72/1/26
f 42/1/26 76/1/26 77/1/26
f 44/1/26 43/1/26 77/1/26
f 45/1/26 44/1/26 78/1/26
f 46/1/26 45/1/26 79/1/26
f 46/1/26 80/1/26 81/1/26
f 48/1/26 47/1/26 81/1/26
f 49/1/26 48/1/26 82/1/26
f 49/1/26 83/1/26 84/1/26
f 50/1/26 84/1/26 85/1/26
f 52/1/26 51/1/26 85/1/26
f 52/1/26 86/1/26 87/1/26
f 54/1/26 53/1/26 87/1/26
f 54/1/26 88/1/26 89/1/26
f 56/1/26 55/1/26 89/1/26
f 56/1/26 90/1/26 74/1/26
f 57/1/26 41/1/26 75/1/26
f 57/1/26 91/1/26 92/1/26
f 59/1/26 58/1/26 92/1/26
f 60/1/26 59/1/26 93/1/26
f 61/1/26 60/1/26 94/1/26
f 61/1/26 95/1/26 96/1/26
f 63/1/26 62/1/26 96/1/26
f 64/1/26 63/1/26 97/1/26
f 65/1/26 64/1/26 98/1/26
f 65/1/26 99/1/26 100/1/26
f 67/1/26 66/1/26 100/1/26
f 67/1/26 101/1/26 102/1/26
f 69/1/26 68/1/26 102/1/26
f 69/1/26 103/1/26 104/1/26
f 71/1/26 70/1/26 104/1/26
f 71/1/26 105/1/26 73/1/26
f 90/1/36 74/1/36 5/1/36
f 5/1/36 21/1/36 20/1/36
f 20/1/36 19/1/36 18/1/36
f 18/1/36 17/1/36 16/1/36
f 16/1/36 15/1/36 14/1/36
f 14/1/36 13/1/36 12/1/36
f 12/1/36 11/1/36 10/1/36
f 10/1/36 9/1/36 8/1/36
f 8/1/36 7/1/36 6/1/36
f 6/1/36 72/1/36 76/1/36
f 6/1/36 76/1/36 77/1/36
f 10/1/36 8/1/36 6/1/36
f 14/1/36 12/1/36 10/1/36
f 18/1/36 16/1/36 14/1/36
f 5/1/36 20/1/36 18/1/36
f 89/1/36 90/1/36 5/1/36
f 89/1/36 5/1/36 18/1/36
f 10/1/36 6/1/36 77/1/36
f 10/1/36 77/1/36 78/1/36
f 88/1/36 89/1/36 18/1/36
f 87/1/36 88/1/36 18/1/36
f 10/1/36 78/1/36 79/1/36
f 10/1/36 79/1/36 80/1/36
f 86/1/36 87/1/36 18/1/36
f 85/1/36 86/1/36 18/1/36
f 10/1/36 80/1/36 81/1/36
f 14/1/36 10/1/36 81/1/36
f 85/1/36 18/1/36 14/1/36
f 84/1/36 85/1/36 14/1/36
f 14/1/36 81/1/36 82/1/36
f 83/1/36 84/1/36 14/1/36
f 105/1/36 73/1/36 37/1/36
f 37/1/36 36/1/36 35/1/36
f 35/1/36 34/1/36 33/1/36
f 33/1/36 32/1/36 31/1/36
f 31/1/36 30/1/36 29/1/36
f 29/1/36 28/1/36 27/1/36
f 27/1/36 26/1/36 25/1/36
f 25/1/36 24/1/36 23/1/36
f 23/1/36 22/1/36 3/1/36
f 3/1/36 75/1/36 91/1/36
f 3/1/36 91/1/36 92/1/36
f 25/1/36 23/1/36 3/1/36
f 29/1/36 27/1/36 25/1/36
f 33/1/36 31/1/36 29/1/36
f 37/1/36 35/1/36 33/1/36
f 104/1/36 105/1/36 37/1/36
f 104/1/36 37/1/36 33/1/36
f 25/1/36 3/1/36 92/1/36
f 25/1/36 92/1/36 93/1/36
f 103/1/36 104/1/36 33/1/36
f 102/1/36 103/1/36 33/1/36
f 25/1/36 93/1/36 94/1/36
f 25/1/36 94/1/36 95/1/36
f 101/1/36 102/1/36 33/1/36
f 100/1/36 101/1/36 33/1/36
f 25/1/36 95/1/36 96/1/36
f 29/1/36 25/1/36 96/1/36
f 100/1/36 33/1/36 29/1/36
f 99/1/36 100/1/36 29/1/36
f 29/1/36 96/1/36 97/1/36
f 98/1/36 99/1/36 29/1/36
f 6/1/36 37/1/36 73/1/36
f 5/1/36 74/1/36 75/1/36
f 43/1/36 42/1/36 38/1/36
f 38/1/36 39/1/36 71/1/36
f 71/1/36 70/1/36 69/1/36
f 69/1/36 68/1/36 67/1/36
f 67/1/36 66/1/36 65/1/36
f 65/1/36 64/1/36 63/1/36
f 63/1/36 62/1/36 61/1/36
f 61/1/36 60/1/36 59/1/36
f 59/1/36 58/1/36 57/1/36
f 57/1/36 41/1/36 40/1/36
f 40/1/36 56/1/36 55/1/36
f 55/1/36 54/1/36 53/1/36
f 53/1/36 52/1/36 51/1/36
f 51/1/36 50/1/36 49/1/36
f 49/1/36 48/1/36 47/1/36
f 47/1/36 46/1/36 45/1/36
f 45/1/36 44/1/36 43/1/36
f 43/1/36 38/1/36 71/1/36
f 71/1/36 69/1/36 67/1/36
f 67/1/36 65/1/36 63/1/36
f 63/1/36 61/1/36 59/1/36
f 59/1/36 57/1/36 40/1/36
f 40/1/36 55/1/36 53/1/36
f 53/1/36 51/1/36 49/1/36
f 49/1/36 47/1/36 45/1/36
f 45/1/36 43/1/36 71/1/36
f 71/1/36 67/1/36 63/1/36
f 63/1/36 59/1/36 40/1/36
f 40/1/36 53/1/36 49/1/36
f 49/1/36 45/1/36 71/1/36
f 71/1/36 63/1/36 40/1/36
usemtl Material.002
f 60/1/1 127/1/1 59/1/1
f 9/1/2 179/1/2 8/1/2
f 34/1/3 204/1/3 33/1/3
f 84/1/4 153/1/4 85/1/4
f 8/1/5 178/1/5 7/1/5
f 33/1/6 203/1/6 32/1/6
f 83/1/7 152/1/7 84/1/7
f 7/1/8 174/1/8 6/1/8
f 32/1/9 202/1/9 31/1/9
f 82/1/10 151/1/10 83/1/10
f 5/1/11 177/1/11 176/1/11
f 31/1/4 201/1/4 30/1/4
f 81/1/12 150/1/12 82/1/12
f 6/1/13 175/1/13 37/1/13
f 30/1/7 200/1/7 29/1/7
f 80/1/14 149/1/14 81/1/14
f 105/1/15 141/1/15 73/1/15
f 29/1/10 199/1/10 28/1/10
f 79/1/16 148/1/16 80/1/16
f 104/1/17 173/1/17 105/1/17
f 28/1/12 198/1/12 27/1/12
f 78/1/1 147/1/1 79/1/1
f 103/1/18 172/1/18 104/1/18
f 27/1/14 197/1/14 26/1/14
f 77/1/19 146/1/19 78/1/19
f 102/1/20 171/1/20 103/1/20
f 26/1/16 196/1/16 25/1/16
f 76/1/21 145/1/21 77/1/21
f 101/1/22 170/1/22 102/1/22
f 25/1/1 195/1/1 24/1/1
f 72/1/23 144/1/23 76/1/23
f 100/1/24 169/1/24 101/1/24
f 24/1/19 194/1/19 23/1/19
f 74/1/13 143/1/13 75/1/13
f 99/1/25 168/1/25 100/1/25
f 112/1/26 126/1/26 134/1/26
f 48/1/27 115/1/27 47/1/27
f 61/1/16 128/1/16 60/1/16
f 49/1/28 116/1/28 48/1/28
f 62/1/14 129/1/14 61/1/14
f 50/1/29 117/1/29 49/1/29
f 63/1/12 130/1/12 62/1/12
f 51/1/25 118/1/25 50/1/25
f 64/1/10 131/1/10 63/1/10
f 52/1/24 119/1/24 51/1/24
f 65/1/7 132/1/7 64/1/7
f 53/1/22 120/1/22 52/1/22
f 38/1/13 107/1/13 39/1/13
f 66/1/4 133/1/4 65/1/4
f 54/1/20 121/1/20 53/1/20
f 41/1/11 108/1/11 40/1/11
f 67/1/9 134/1/9 66/1/9
f 55/1/18 122/1/18 54/1/18
f 42/1/8 106/1/8 38/1/8
f 68/1/6 135/1/6 67/1/6
f 56/1/17 123/1/17 55/1/17
f 43/1/5 110/1/5 42/1/5
f 69/1/3 136/1/3 68/1/3
f 40/1/15 124/1/15 56/1/15
f 44/1/2 111/1/2 43/1/2
f 70/1/30 137/1/30 69/1/30
f 57/1/23 109/1/23 41/1/23
f 45/1/31 112/1/31 44/1/31
f 71/1/32 138/1/32 70/1/32
f 58/1/21 125/1/21 57/1/21
f 46/1/33 113/1/33 45/1/33
f 39/1/34 139/1/34 71/1/34
f 59/1/19 126/1/19 58/1/19
f 47/1/35 114/1/35 46/1/35
f 140/1/26 175/1/26 174/1/26
f 143/1/26 176/1/26 177/1/26
f 144/1/26 174/1/26 178/1/26
f 144/1/26 179/1/26 145/1/26
f 146/1/26 179/1/26 180/1/26
f 147/1/26 180/1/26 181/1/26
f 148/1/26 181/1/26 182/1/26
f 148/1/26 183/1/26 149/1/26
f 150/1/26 183/1/26 184/1/26
f 150/1/26 185/1/26 151/1/26
f 152/1/26 185/1/26 186/1/26
f 152/1/26 187/1/26 153/1/26
f 154/1/26 187/1/26 188/1/26
f 154/1/26 189/1/26 155/1/26
f 156/1/26 189/1/26 190/1/26
f 156/1/26 191/1/26 157/1/26
f 158/1/26 191/1/26 192/1/26
f 158/1/26 176/1/26 142/1/26
f 159/1/26 177/1/26 193/1/26
f 159/1/26 194/1/26 160/1/26
f 161/1/26 194/1/26 195/1/26
f 162/1/26 195/1/26 196/1/26
f 163/1/26 196/1/26 197/1/26
f 163/1/26 198/1/26 164/1/26
f 165/1/26 198/1/26 199/1/26
f 165/1/26 200/1/26 166/1/26
f 167/1/26 200/1/26 201/1/26
f 167/1/26 202/1/26 168/1/26
f 169/1/26 202/1/26 203/1/26
f 169/1/26 204/1/26 170/1/26
f 171/1/26 204/1/26 205/1/26
f 171/1/26 206/1/26 172/1/26
f 173/1/26 206/1/26 207/1/26
f 173/1/26 175/1/26 141/1/26
f 85/1/9 154/1/9 86/1/9
f 35/1/30 205/1/30 34/1/30
f 10/1/31 180/1/31 9/1/31
f 86/1/6 155/1/6 87/1/6
f 36/1/32 206/1/32 35/1/32
f 11/1/33 181/1/33 10/1/33
f 87/1/3 156/1/3 88/1/3
f 37/1/34 207/1/34 36/1/34
f 12/1/35 182/1/35 11/1/35
f 88/1/30 157/1/30 89/1/30
f 13/1/27 183/1/27 12/1/27
f 89/1/32 158/1/32 90/1/32
f 14/1/28 184/1/28 13/1/28
f 90/1/34 142/1/34 74/1/34
f 15/1/29 185/1/29 14/1/29
f 75/1/8 159/1/8 91/1/8
f 16/1/25 186/1/25 15/1/25
f 91/1/5 160/1/5 92/1/5
f 17/1/24 187/1/24 16/1/24
f 92/1/2 161/1/2 93/1/2
f 18/1/22 188/1/22 17/1/22
f 93/1/31 162/1/31 94/1/31
f 19/1/20 189/1/20 18/1/20
f 94/1/33 163/1/33 95/1/33
f 20/1/18 190/1/18 19/1/18
f 95/1/35 164/1/35 96/1/35
f 21/1/17 191/1/17 20/1/17
f 96/1/27 165/1/27 97/1/27
f 5/1/15 192/1/15 21/1/15
f 97/1/28 166/1/28 98/1/28
f 3/1/23 193/1/23 177/1/23
f 98/1/29 167/1/29 99/1/29
f 73/1/11 140/1/11 72/1/11
f 23/1/21 193/1/21 22/1/21
f 60/1/1 128/1/1 127/1/1
f 9/1/2 180/1/2 179/1/2
f 34/1/3 205/1/3 204/1/3
f 84/1/4 152/1/4 153/1/4
f 8/1/5 179/1/5 178/1/5
f 33/1/6 204/1/6 203/1/6
f 83/1/7 151/1/7 152/1/7
f 7/1/8 178/1/8 174/1/8
f 32/1/9 203/1/9 202/1/9
f 82/1/10 150/1/10 151/1/10
f 5/1/11 3/1/11 177/1/11
f 31/1/4 202/1/4 201/1/4
f 81/1/12 149/1/12 150/1/12
f 6/1/13 174/1/13 175/1/13
f 30/1/7 201/1/7 200/1/7
f 80/1/14 148/1/14 149/1/14
f 105/1/15 173/1/15 141/1/15
f 29/1/10 200/1/10 199/1/10
f 79/1/16 147/1/16 148/1/16
f 104/1/17 172/1/17 173/1/17
f 28/1/12 199/1/12 198/1/12
f 78/1/1 146/1/1 147/1/1
f 103/1/18 171/1/18 172/1/18
f 27/1/14 198/1/14 197/1/14
f 77/1/19 145/1/19 146/1/19
f 102/1/20 170/1/20 171/1/20
f 26/1/16 197/1/16 196/1/16
f 76/1/21 144/1/21 145/1/21
f 101/1/22 169/1/22 170/1/22
f 25/1/1 196/1/1 195/1/1
f 72/1/23 140/1/23 144/1/23
f 100/1/24 168/1/24 169/1/24
f 24/1/19 195/1/19 194/1/19
f 74/1/13 142/1/13 143/1/13
f 99/1/25 167/1/25 168/1/25
f 107/1/26 106/1/26 110/1/26
f 110/1/26 111/1/26 112/1/26
f 112/1/26 113/1/26 114/1/26
f 114/1/26 115/1/26 116/1/26
f 116/1/26 117/1/26 118/1/26
f 118/1/26 119/1/26 120/1/26
f 120/1/26 121/1/26 122/1/26
f 122/1/26 123/1/26 124/1/26
f 124/1/26 108/1/26 109/1/26
f 109/1/26 125/1/26 126/1/26
f 126/1/26 127/1/26 128/1/26
f 128/1/26 129/1/26 130/1/26
f 130/1/26 131/1/26 132/1/26
f 132/1/26 133/1/26 134/1/26
f 134/1/26 135/1/26 136/1/26
f 136/1/26 137/1/26 138/1/26
f 138/1/26 139/1/26 107/1/26
f 107/1/26 110/1/26 112/1/26
f 112/1/26 114/1/26 116/1/26
f 116/1/26 118/1/26 120/1/26
f 120/1/26 122/1/26 124/1/26
f 124/1/26 109/1/26 126/1/26
f 126/1/26 128/1/26 130/1/26
f 130/1/26 132/1/26 134/1/26
f 134/1/26 136/1/26 138/1/26
f 138/1/26 107/1/26 112/1/26
f 112/1/26 116/1/26 120/1/26
f 120/1/26 124/1/26 126/1/26
f 126/1/26 130/1/26 134/1/26
f 134/1/26 138/1/26 112/1/26
f 112/1/26 120/1/26 126/1/26
f 48/1/27 116/1/27 115/1/27
f 61/1/16 129/1/16 128/1/16
f 49/1/28 117/1/28 116/1/28
f 62/1/14 130/1/14 129/1/14
f 50/1/29 118/1/29 117/1/29
f 63/1/12 131/1/12 130/1/12
f 51/1/25 119/1/25 118/1/25
f 64/1/10 132/1/10 131/1/10
f 52/1/24 120/1/24 119/1/24
f 65/1/7 133/1/7 132/1/7
f 53/1/22 121/1/22 120/1/22
f 38/1/13 106/1/13 107/1/13
f 66/1/4 134/1/4 133/1/4
f 54/1/20 122/1/20 121/1/20
f 41/1/11 109/1/11 108/1/11
f 67/1/9 135/1/9 134/1/9
f 55/1/18 123/1/18 122/1/18
f 42/1/8 110/1/8 106/1/8
f 68/1/6 136/1/6 135/1/6
f 56/1/17 124/1/17 123/1/17
f 43/1/5 111/1/5 110/1/5
f 69/1/3 137/1/3 136/1/3
f 40/1/15 108/1/15 124/1/15
f 44/1/2 112/1/2 111/1/2
f 70/1/30 138/1/30 137/1/30
f 57/1/23 125/1/23 109/1/23
f 45/1/31 113/1/31 112/1/31
f 71/1/32 139/1/32 138/1/32
f 58/1/21 126/1/21 125/1/21
f 46/1/33 114/1/33 113/1/33
f 39/1/34 107/1/34 139/1/34
f 59/1/19 127/1/19 126/1/19
f 47/1/35 115/1/35 114/1/35
f 140/1/26 141/1/26 175/1/26
f 143/1/26 142/1/26 176/1/26
f 144/1/26 140/1/26 174/1/26
f 144/1/26 178/1/26 179/1/26
f 146/1/26 145/1/26 179/1/26
f 147/1/26 146/1/26 180/1/26
f 148/1/26 147/1/26 181/1/26
f 148/1/26 182/1/26 183/1/26
f 150/1/26 149/1/26 183/1/26
f 150/1/26 184/1/26 185/1/26
f 152/1/26 151/1/26 185/1/26
f 152/1/26 186/1/26 187/1/26
f 154/1/26 153/1/26 187/1/26
f 154/1/26 188/1/26 189/1/26
f 156/1/26 155/1/26 189/1/26
f 156/1/26 190/1/26 191/1/26
f 158/1/26 157/1/26 191/1/26
f 158/1/26 192/1/26 176/1/26
f 159/1/26 143/1/26 177/1/26
f 159/1/26 193/1/26 194/1/26
f 161/1/26 160/1/26 194/1/26
f 162/1/26 161/1/26 195/1/26
f 163/1/26 162/1/26 196/1/26
f 163/1/26 197/1/26 198/1/26
f 165/1/26 164/1/26 198/1/26
f 165/1/26 199/1/26 200/1/26
f 167/1/26 166/1/26 200/1/26
f 167/1/26 201/1/26 202/1/26
f 169/1/26 168/1/26 202/1/26
f 169/1/26 203/1/26 204/1/26
f 171/1/26 170/1/26 204/1/26
f 171/1/26 205/1/26 206/1/26
f 173/1/26 172/1/26 206/1/26
f 173/1/26 207/1/26 175/1/26
f 85/1/9 153/1/9 154/1/9
f 35/1/30 206/1/30 205/1/30
f 10/1/31 181/1/31 180/1/31
f 86/1/6 154/1/6 155/1/6
f 36/1/32 207/1/32 206/1/32
f 11/1/33 182/1/33 181/1/33
f 87/1/3 155/1/3 156/1/3
f 37/1/34 175/1/34 207/1/34
f 12/1/35 183/1/35 182/1/35
f 88/1/30 156/1/30 157/1/30
f 13/1/27 184/1/27 183/1/27
f 89/1/32 157/1/32 158/1/32
f 14/1/28 185/1/28 184/1/28
f 90/1/34 158/1/34 142/1/34
f 15/1/29 186/1/29 185/1/29
f 75/1/8 143/1/8 159/1/8
f 16/1/25 187/1/25 186/1/25
f 91/1/5 159/1/5 160/1/5
f 17/1/24 188/1/24 187/1/24
f 92/1/2 160/1/2 161/1/2
f 18/1/22 189/1/22 188/1/22
f 93/1/31 161/1/31 162/1/31
f 19/1/20 190/1/20 189/1/20
f 94/1/33 162/1/33 163/1/33
f 20/1/18 191/1/18 190/1/18
f 95/1/35 163/1/35 164/1/35
f 21/1/17 192/1/17 191/1/17
f 96/1/27 164/1/27 165/1/27
f 5/1/15 176/1/15 192/1/15
f 97/1/28 165/1/28 166/1/28
f 3/1/23 22/1/23 193/1/23
f 98/1/29 166/1/29 167/1/29
f 73/1/11 141/1/11 140/1/11
f 23/1/21 194/1/21 193/1/21
l 2 1
l 4 3
